<?xml version="1.0" encoding="UTF-8" standalone="no"?>
<!-- Created with Inkscape (http://www.inkscape.org/) -->

<svg
   width="243.2681mm"
   height="243.2681mm"
   viewBox="0 0 243.2681 243.2681"
   version="1.1"
   id="svg1"
   xml:space="preserve"
   xmlns="http://www.w3.org/2000/svg"
   xmlns:svg="http://www.w3.org/2000/svg"><defs
     id="defs1" /><g
     id="layer1"
     transform="translate(2136.4892,-2224.1611)"><rect
       style="fill:none;stroke:none;stroke-width:7.99999;stroke-linecap:round;stroke-linejoin:round;stroke-dasharray:none"
       id="rect74"
       width="243.26813"
       height="243.26813"
       x="-2136.4893"
       y="2224.1611" /><path
       id="path76"
       style="fill:none;stroke:#000000;stroke-width:13;stroke-linecap:round;stroke-linejoin:round;stroke-dasharray:none"
       d="m -2014.8556,2274.1733 a 71.621304,71.62129 0 0 0 -71.6214,71.6219 71.621304,71.62129 0 0 0 71.6214,71.6219 71.621304,71.62129 0 0 0 71.6219,-71.6219 71.621304,71.62129 0 0 0 -1.5095,-14.5657 45.751413,45.751404 0 0 1 -44.2419,34.4467 45.751413,45.751404 0 0 1 -45.7516,-45.7514 45.751413,45.751404 0 0 1 34.4467,-44.2423 71.621304,71.62129 0 0 0 -14.5656,-1.5092 z" /></g></svg>
