<?xml version="1.0" encoding="UTF-8" standalone="no"?>
<!-- Created with Inkscape (http://www.inkscape.org/) -->

<svg
   width="243.2681mm"
   height="243.26825mm"
   viewBox="0 0 243.2681 243.26825"
   version="1.1"
   id="svg1"
   xml:space="preserve"
   xmlns="http://www.w3.org/2000/svg"
   xmlns:svg="http://www.w3.org/2000/svg"><defs
     id="defs1" /><g
     id="layer1"
     transform="translate(1873.9147,-1699.2176)"><rect
       style="fill:none;stroke:none;stroke-width:7.99999;stroke-linecap:round;stroke-linejoin:round;stroke-dasharray:none"
       id="rect35"
       width="243.26813"
       height="243.26813"
       x="-1873.9148"
       y="1699.2175" /><ellipse
       style="fill:none;stroke:#000000;stroke-width:13;stroke-linecap:round;stroke-dasharray:none"
       id="circle36"
       cx="-1791.5291"
       cy="1840.9056"
       rx="56.334053"
       ry="56.442101" /><ellipse
       style="fill:none;stroke:#000000;stroke-width:13;stroke-linecap:round;stroke-dasharray:none"
       id="circle37"
       cx="-1733.5995"
       cy="1863.7272"
       rx="33.55608"
       ry="33.620445" /><path
       id="path37"
       style="fill:none;stroke:#000000;stroke-width:13;stroke-linecap:round;stroke-linejoin:round;stroke-dasharray:none"
       d="m -1692.5124,1744.3555 a 35.813616,35.881601 0 0 0 -35.8136,35.8818 35.813616,35.881601 0 0 0 35.8136,35.8819 35.813616,35.881601 0 0 0 35.814,-35.8819 35.813616,35.881601 0 0 0 -0.7547,-7.2972 22.877601,22.921028 0 0 1 -22.1229,17.2575 22.877601,22.921028 0 0 1 -22.8777,-22.9211 22.877601,22.921028 0 0 1 17.2248,-22.1649 35.813616,35.881601 0 0 0 -7.2835,-0.7561 z" /></g></svg>
