<?xml version="1.0" encoding="UTF-8" standalone="no"?>
<!-- Created with Inkscape (http://www.inkscape.org/) -->

<svg
   width="243.2681mm"
   height="243.2681mm"
   viewBox="0 0 243.2681 243.2681"
   version="1.1"
   id="svg1"
   xml:space="preserve"
   xmlns="http://www.w3.org/2000/svg"
   xmlns:svg="http://www.w3.org/2000/svg"><defs
     id="defs1" /><g
     id="layer1"
     transform="translate(2398.9541,-2755.1391)"><rect
       style="fill:none;stroke:none;stroke-width:7.99999;stroke-linecap:round;stroke-linejoin:round;stroke-dasharray:none"
       id="rect213"
       width="243.26813"
       height="243.26813"
       x="-2398.9541"
       y="2755.1392" /><g
       id="g216"
       style="stroke-width:22.9916;stroke-dasharray:none"
       transform="matrix(0.56459231,0,0,0.56625881,-1348.0146,2200.1765)"><path
         style="fill:none;stroke:#000000;stroke-width:22.9916;stroke-linecap:round;stroke-linejoin:round;stroke-dasharray:none"
         d="m -1776.5247,1094.6936 c 0,0 39.7854,-18.9615 87.0324,-0.022"
         id="path213" /><path
         style="fill:none;stroke:#000000;stroke-width:22.9916;stroke-linecap:round;stroke-linejoin:round;stroke-dasharray:none"
         d="m -1689.4923,1094.6716 c 0,0 39.7854,18.9615 87.0324,0.022"
         id="path215" /><path
         style="fill:none;stroke:#000000;stroke-width:22.9916;stroke-linecap:round;stroke-linejoin:round;stroke-dasharray:none"
         d="m -1602.4599,1094.6936 c 0,0 39.7854,-18.9615 87.0324,-0.022"
         id="path216" /></g><g
       id="g219"
       style="stroke-width:22.9916;stroke-dasharray:none"
       transform="matrix(0.56459231,0,0,0.56625881,-1348.0146,2228.5381)"><path
         style="fill:none;stroke:#000000;stroke-width:22.9916;stroke-linecap:round;stroke-linejoin:round;stroke-dasharray:none"
         d="m -1776.5247,1094.6936 c 0,0 39.7854,-18.9615 87.0324,-0.022"
         id="path217" /><path
         style="fill:none;stroke:#000000;stroke-width:22.9916;stroke-linecap:round;stroke-linejoin:round;stroke-dasharray:none"
         d="m -1689.4923,1094.6716 c 0,0 39.7854,18.9615 87.0324,0.022"
         id="path218" /><path
         style="fill:none;stroke:#000000;stroke-width:22.9916;stroke-linecap:round;stroke-linejoin:round;stroke-dasharray:none"
         d="m -1602.4599,1094.6936 c 0,0 39.7854,-18.9615 87.0324,-0.022"
         id="path219" /></g><g
       id="g222"
       style="stroke-width:22.9916;stroke-dasharray:none"
       transform="matrix(0.56459231,0,0,0.56625881,-1348.0146,2256.8996)"><path
         style="fill:none;stroke:#000000;stroke-width:22.9916;stroke-linecap:round;stroke-linejoin:round;stroke-dasharray:none"
         d="m -1776.5247,1094.6936 c 0,0 39.7854,-18.9615 87.0324,-0.022"
         id="path220" /><path
         style="fill:none;stroke:#000000;stroke-width:22.9916;stroke-linecap:round;stroke-linejoin:round;stroke-dasharray:none"
         d="m -1689.4923,1094.6716 c 0,0 39.7854,18.9615 87.0324,0.022"
         id="path221" /><path
         style="fill:none;stroke:#000000;stroke-width:22.9916;stroke-linecap:round;stroke-linejoin:round;stroke-dasharray:none"
         d="m -1602.4599,1094.6936 c 0,0 39.7854,-18.9615 87.0324,-0.022"
         id="path222" /></g><g
       id="g225"
       style="stroke-width:22.9916;stroke-dasharray:none"
       transform="matrix(0.56459231,0,0,0.56625881,-1348.0146,2285.2612)"><path
         style="fill:none;stroke:#000000;stroke-width:22.9916;stroke-linecap:round;stroke-linejoin:round;stroke-dasharray:none"
         d="m -1776.5247,1094.6936 c 0,0 39.7854,-18.9615 87.0324,-0.022"
         id="path223" /><path
         style="fill:none;stroke:#000000;stroke-width:22.9916;stroke-linecap:round;stroke-linejoin:round;stroke-dasharray:none"
         d="m -1689.4923,1094.6716 c 0,0 39.7854,18.9615 87.0324,0.022"
         id="path224" /><path
         style="fill:none;stroke:#000000;stroke-width:22.9916;stroke-linecap:round;stroke-linejoin:round;stroke-dasharray:none"
         d="m -1602.4599,1094.6936 c 0,0 39.7854,-18.9615 87.0324,-0.022"
         id="path225" /></g><g
       id="g242"
       style="stroke-width:22.9916;stroke-dasharray:none"
       transform="matrix(0.56459231,0,0,0.56625881,-1348.0146,2313.6228)"><path
         style="fill:none;stroke:#000000;stroke-width:22.9916;stroke-linecap:round;stroke-linejoin:round;stroke-dasharray:none"
         d="m -1776.5247,1094.6936 c 0,0 39.7854,-18.9615 87.0324,-0.022"
         id="path226" /><path
         style="fill:none;stroke:#000000;stroke-width:22.9916;stroke-linecap:round;stroke-linejoin:round;stroke-dasharray:none"
         d="m -1689.4923,1094.6716 c 0,0 39.7854,18.9615 87.0324,0.022"
         id="path227" /><path
         style="fill:none;stroke:#000000;stroke-width:22.9916;stroke-linecap:round;stroke-linejoin:round;stroke-dasharray:none"
         d="m -1602.4599,1094.6936 c 0,0 39.7854,-18.9615 87.0324,-0.022"
         id="path242" /></g></g></svg>
