<?xml version="1.0" encoding="UTF-8" standalone="no"?>
<!-- Created with Inkscape (http://www.inkscape.org/) -->

<svg
   width="243.2681mm"
   height="243.2681mm"
   viewBox="0 0 243.2681 243.2681"
   version="1.1"
   id="svg1"
   xml:space="preserve"
   xmlns="http://www.w3.org/2000/svg"
   xmlns:svg="http://www.w3.org/2000/svg"><defs
     id="defs1" /><g
     id="layer1"
     transform="translate(2137.1296,-2755.6681)"><rect
       style="fill:none;stroke:none;stroke-width:7.99999;stroke-linecap:round;stroke-linejoin:round;stroke-dasharray:none"
       id="rect242"
       width="243.26813"
       height="243.26813"
       x="-2137.1296"
       y="2755.6682" /><path
       style="fill:none;stroke:#000000;stroke-width:12.9999;stroke-linecap:round;stroke-dasharray:none"
       id="circle299"
       d="m -2087.4168,2887.2127 a 73.369614,72.892624 0 0 1 33.8332,-69.8195 73.369614,72.892624 0 0 1 77.9965,-0.1006 73.369614,72.892624 0 0 1 34.0156,69.7319" /><path
       style="fill:none;stroke:#000000;stroke-width:12.9999;stroke-linecap:round;stroke-dasharray:none"
       id="circle300"
       d="m -2061.8372,2882.4023 a 47.421608,46.829426 0 0 1 23.797,-43.5289 47.421608,46.829426 0 0 1 50.0584,1.8354 47.421608,46.829426 0 0 1 20.4629,45.1516" /><g
       id="g302"
       style="stroke-width:22.7831;stroke-dasharray:none"
       transform="matrix(0.56968391,0,0,0.57151322,-1077.8096,2289.387)"><path
         style="fill:none;stroke:#000000;stroke-width:22.7831;stroke-linecap:round;stroke-linejoin:round;stroke-dasharray:none"
         d="m -1776.5247,1094.6936 c 0,0 39.7854,-18.9615 87.0324,-0.022"
         id="path300" /><path
         style="fill:none;stroke:#000000;stroke-width:22.7831;stroke-linecap:round;stroke-linejoin:round;stroke-dasharray:none"
         d="m -1689.4923,1094.6716 c 0,0 39.7854,18.9615 87.0324,0.022"
         id="path301" /><path
         style="fill:none;stroke:#000000;stroke-width:22.7831;stroke-linecap:round;stroke-linejoin:round;stroke-dasharray:none"
         d="m -1602.4599,1094.6936 c 0,0 39.7854,-18.9615 87.0324,-0.022"
         id="path302" /></g><g
       id="g305"
       style="stroke-width:22.7831;stroke-dasharray:none"
       transform="matrix(0.56968391,0,0,0.57151322,-1077.8096,2318.0117)"><path
         style="fill:none;stroke:#000000;stroke-width:22.7831;stroke-linecap:round;stroke-linejoin:round;stroke-dasharray:none"
         d="m -1776.5247,1094.6936 c 0,0 39.7854,-18.9615 87.0324,-0.022"
         id="path303" /><path
         style="fill:none;stroke:#000000;stroke-width:22.7831;stroke-linecap:round;stroke-linejoin:round;stroke-dasharray:none"
         d="m -1689.4923,1094.6716 c 0,0 39.7854,18.9615 87.0324,0.022"
         id="path304" /><path
         style="fill:none;stroke:#000000;stroke-width:22.7831;stroke-linecap:round;stroke-linejoin:round;stroke-dasharray:none"
         d="m -1602.4599,1094.6936 c 0,0 39.7854,-18.9615 87.0324,-0.022"
         id="path305" /></g></g></svg>
