<?xml version="1.0" encoding="UTF-8" standalone="no"?>
<!-- Created with Inkscape (http://www.inkscape.org/) -->

<svg
   width="84.665375mm"
   height="84.665344mm"
   viewBox="0 0 84.665375 84.665344"
   version="1.1"
   id="svg1"
   xml:space="preserve"
   xmlns="http://www.w3.org/2000/svg"
   xmlns:svg="http://www.w3.org/2000/svg"><defs
     id="defs1" /><g
     id="layer1"
     transform="translate(618.92816,-391.93169)"><path
       d="m -582.76032,394.53717 c 0.14287,-0.14023 0.21431,-0.21167 0.27516,-0.26988 3.30994,-3.11414 8.46931,-3.11414 11.77925,0 0.0609,0.0582 0.13229,0.12965 0.27517,0.26988 0.0873,0.082 0.12964,0.12435 0.16933,0.16404 2.11931,2.02141 5.11704,2.8231 7.96131,2.13254 0.0556,-0.0132 0.11377,-0.0291 0.23019,-0.0582 0.19315,-0.0503 0.29104,-0.0741 0.37306,-0.0952 4.42119,-1.04246 8.89265,1.53723 10.19969,5.88963 0.0238,0.082 0.0503,0.17727 0.10583,0.37041 0.0317,0.11642 0.0476,0.17463 0.0635,0.23019 0.82286,2.80723 3.0189,5.00327 5.82613,5.82613 0.0556,0.0159 0.11377,0.0317 0.23019,0.0635 0.19314,0.0556 0.28839,0.082 0.37041,0.10583 4.3524,1.30704 6.93209,5.7785 5.88963,10.19969 -0.0212,0.082 -0.045,0.17991 -0.0952,0.37306 -0.0291,0.11642 -0.045,0.17462 -0.0582,0.23019 -0.69056,2.84427 0.11113,5.842 2.13254,7.96131 0.0397,0.0397 0.082,0.082 0.16404,0.16933 0.14023,0.14288 0.21167,0.21431 0.26988,0.27517 3.11414,3.30994 3.11414,8.46931 0,11.77925 -0.0582,0.0608 -0.12965,0.13229 -0.26988,0.27517 -0.082,0.0873 -0.12435,0.12964 -0.16404,0.16933 -2.02141,2.11931 -2.8231,5.11704 -2.13254,7.96131 0.0132,0.0556 0.0291,0.11377 0.0582,0.23019 0.0503,0.19314 0.0741,0.29104 0.0952,0.37306 1.04246,4.42119 -1.53723,8.89265 -5.88963,10.19969 -0.082,0.0238 -0.17727,0.0503 -0.37041,0.10583 -0.11642,0.0317 -0.17463,0.0476 -0.23019,0.0635 -2.80723,0.82286 -5.00327,3.0189 -5.82613,5.82613 -0.0159,0.0556 -0.0318,0.11377 -0.0635,0.23018 -0.0556,0.19315 -0.082,0.2884 -0.10583,0.37042 -1.30704,4.3524 -5.7785,6.93208 -10.19969,5.88963 -0.082,-0.0212 -0.17991,-0.045 -0.37306,-0.0953 -0.11642,-0.0291 -0.17462,-0.045 -0.23019,-0.0582 -2.84427,-0.69057 -5.842,0.11112 -7.96131,2.13254 -0.0397,0.0397 -0.082,0.082 -0.16933,0.16404 -0.14288,0.14023 -0.21431,0.21167 -0.27517,0.26988 -3.30994,3.11414 -8.46931,3.11414 -11.77925,0 -0.0609,-0.0582 -0.13229,-0.12965 -0.27516,-0.26988 -0.0873,-0.082 -0.12965,-0.12435 -0.16934,-0.16404 -2.11931,-2.02142 -5.11704,-2.82311 -7.96131,-2.13254 -0.0556,0.0132 -0.11377,0.0291 -0.23019,0.0582 -0.19314,0.0503 -0.29104,0.0741 -0.37306,0.0953 -4.42119,1.04245 -8.89265,-1.53723 -10.19969,-5.88963 -0.0238,-0.082 -0.0503,-0.17727 -0.10583,-0.37042 -0.0317,-0.11641 -0.0476,-0.17462 -0.0635,-0.23018 -0.82286,-2.80723 -3.0189,-5.00327 -5.82613,-5.82613 -0.0556,-0.0159 -0.11377,-0.0317 -0.23018,-0.0635 -0.19315,-0.0556 -0.2884,-0.082 -0.37042,-0.10583 -4.3524,-1.30704 -6.93208,-5.7785 -5.88963,-10.19969 0.0212,-0.082 0.045,-0.17992 0.0953,-0.37306 0.0291,-0.11642 0.045,-0.17463 0.0582,-0.23019 0.69057,-2.84427 -0.11112,-5.842 -2.13254,-7.96131 -0.0397,-0.0397 -0.082,-0.082 -0.16404,-0.16933 -0.14023,-0.14288 -0.21167,-0.21432 -0.26988,-0.27517 -3.11414,-3.30994 -3.11414,-8.46931 0,-11.77925 0.0582,-0.0609 0.12965,-0.13229 0.26988,-0.27517 0.082,-0.0873 0.12435,-0.12964 0.16404,-0.16933 2.02142,-2.11931 2.82311,-5.11704 2.13254,-7.96131 -0.0132,-0.0556 -0.0291,-0.11377 -0.0582,-0.23019 -0.0503,-0.19315 -0.0741,-0.29104 -0.0953,-0.37306 -1.04245,-4.42119 1.53723,-8.89265 5.88963,-10.19969 0.082,-0.0238 0.17727,-0.0503 0.37042,-0.10583 0.11641,-0.0318 0.17462,-0.0476 0.23018,-0.0635 2.80723,-0.82286 5.00327,-3.0189 5.82613,-5.82613 0.0159,-0.0556 0.0317,-0.11377 0.0635,-0.23019 0.0556,-0.19314 0.082,-0.28839 0.10583,-0.37041 1.30704,-4.3524 5.7785,-6.93209 10.19969,-5.88963 0.082,0.0212 0.17992,0.045 0.37306,0.0952 0.11642,0.0291 0.17463,0.045 0.23019,0.0582 2.84427,0.69056 5.842,-0.11113 7.96131,-2.13254 0.0397,-0.0397 0.082,-0.082 0.16934,-0.16404 z"
       fill="#d0bcff"
       id="path28"
       style="fill:#000000;stroke-width:0.264583" /></g></svg>
