<?xml version="1.0" encoding="UTF-8" standalone="no"?>
<svg
   width="279.99689"
   height="279.99365"
   viewBox="0 0 279.99689 279.99365"
   fill="none"
   version="1.1"
   id="svg35"
   xmlns="http://www.w3.org/2000/svg"
   xmlns:svg="http://www.w3.org/2000/svg">
  <path
     d="m 178.73007,6.2068025 c 60.14,-26.1200005 121.18,34.9199995 95.06,95.0600075 l -4.32,9.94 c -7.97,18.37 -7.97,39.21 0,57.58 l 4.32,9.94 c 26.12,60.14 -34.92,121.18 -95.06,95.06 l -9.94,-4.32 c -18.37,-7.97 -39.21,-7.97 -57.58,0 l -9.94,4.32 c -60.142,26.12 -121.184,-34.92 -95.0629997,-95.06 l 4.3189997,-9.94 c 7.975,-18.37 7.975,-39.21 0,-57.58 l -4.3189997,-9.94 C -19.91393,41.126802 41.12807,-19.913198 101.27007,6.2068025 l 9.94,4.3199995 c 18.37,7.97 39.21,7.97 57.58,0 z"
     fill="#d0bcff"
     id="path35"
     style="fill:#000000" />
  <defs
     id="defs35" />
</svg>
