<?xml version="1.0" encoding="UTF-8" standalone="no"?>
<!-- Created with Inkscape (http://www.inkscape.org/) -->

<svg
   width="83.608459mm"
   height="73.553879mm"
   viewBox="0 0 83.608459 73.553879"
   version="1.1"
   id="svg1"
   xml:space="preserve"
   xmlns="http://www.w3.org/2000/svg"
   xmlns:svg="http://www.w3.org/2000/svg"><defs
     id="defs1" /><g
     id="layer1"
     transform="translate(973.73521,-280.01217)"><path
       d="m -901.88222,312.34435 c -3.70893,-5.7097 -7.41759,-11.42735 -11.12652,-17.13706 -2.40612,-3.70681 -4.8551,-7.46389 -8.10816,-10.40871 -3.25331,-2.9501 -7.4676,-5.03502 -11.78877,-4.7625 -3.79413,0.24342 -7.31097,2.28336 -10.08724,4.94771 -2.77627,2.66436 -4.93316,5.94519 -7.05459,9.19427 -5.73775,8.77888 -11.48238,17.55775 -17.22014,26.34192 -2.72653,4.16983 -5.52423,8.52223 -6.27882,13.4911 -0.91123,6.0034 1.5449,12.11792 5.90153,16.11048 4.55586,4.17513 11.938,3.83646 17.48366,2.69346 6.07934,-1.25677 12.02346,-3.6195 18.22371,-3.61156 5.31072,0 10.44337,1.74625 15.61147,3.01625 5.16097,1.26206 10.70663,2.03994 15.6898,0.16139 6.18595,-2.32568 10.62804,-8.94027 10.50713,-15.72947 -0.11404,-6.1939 -3.58087,-11.72634 -6.91938,-16.88042 -1.60894,-2.47386 -3.2176,-4.953 -4.82653,-7.42686 z"
       fill="#d0bcff"
       id="path20"
       style="fill:#000000;stroke-width:0.264583" /></g></svg>
